<svg width="21" height="21" viewBox="0 0 21 21" fill="none" xmlns="http://www.w3.org/2000/svg">
    <path d="M3.65078 8.02498L5.60078 8.84998C5.83411 8.38332 6.07578 7.93332 6.32578 7.49998C6.57578 7.06665 6.85078 6.63332 7.15078 6.19998L5.75078 5.92498L3.65078 8.02498ZM7.20078 10.1L10.0508 12.925C10.7508 12.6583 11.5008 12.25 12.3008 11.7C13.1008 11.15 13.8508 10.525 14.5508 9.82498C15.7174 8.65832 16.6299 7.36248 17.2883 5.93748C17.9466 4.51248 18.2341 3.19998 18.1508 1.99998C16.9508 1.91665 15.6341 2.20415 14.2008 2.86248C12.7674 3.52082 11.4674 4.43332 10.3008 5.59998C9.60078 6.29998 8.97578 7.04998 8.42578 7.84998C7.87578 8.64998 7.46745 9.39998 7.20078 10.1ZM11.6508 8.47498C11.2674 8.09165 11.0758 7.62082 11.0758 7.06248C11.0758 6.50415 11.2674 6.03332 11.6508 5.64998C12.0341 5.26665 12.5091 5.07498 13.0758 5.07498C13.6424 5.07498 14.1174 5.26665 14.5008 5.64998C14.8841 6.03332 15.0758 6.50415 15.0758 7.06248C15.0758 7.62082 14.8841 8.09165 14.5008 8.47498C14.1174 8.85832 13.6424 9.04998 13.0758 9.04998C12.5091 9.04998 12.0341 8.85832 11.6508 8.47498ZM12.1258 16.5L14.2258 14.4L13.9508 13C13.5174 13.3 13.0841 13.5708 12.6508 13.8125C12.2174 14.0542 11.7674 14.2916 11.3008 14.525L12.1258 16.5ZM19.9508 0.174983C20.2674 2.19165 20.0716 4.15415 19.3633 6.06248C18.6549 7.97082 17.4341 9.79165 15.7008 11.525L16.2008 14C16.2674 14.3333 16.2508 14.6583 16.1508 14.975C16.0508 15.2916 15.8841 15.5666 15.6508 15.8L11.4508 20L9.35078 15.075L5.07578 10.8L0.150781 8.69998L4.32578 4.49998C4.55911 4.26665 4.83828 4.09998 5.16328 3.99998C5.48828 3.89998 5.81745 3.88332 6.15078 3.94998L8.62578 4.44998C10.3591 2.71665 12.1758 1.49165 14.0758 0.774983C15.9758 0.0583168 17.9341 -0.141683 19.9508 0.174983ZM1.92578 13.975C2.50911 13.3917 3.22161 13.0958 4.06328 13.0875C4.90495 13.0792 5.61745 13.3667 6.20078 13.95C6.78411 14.5333 7.07161 15.2458 7.06328 16.0875C7.05495 16.9292 6.75911 17.6416 6.17578 18.225C5.75911 18.6416 5.06328 19 4.08828 19.3C3.11328 19.6 1.76745 19.8666 0.0507812 20.1C0.284115 18.3833 0.550781 17.0375 0.850781 16.0625C1.15078 15.0875 1.50911 14.3917 1.92578 13.975ZM3.35078 15.375C3.18411 15.5417 3.01745 15.8458 2.85078 16.2875C2.68411 16.7292 2.56745 17.175 2.50078 17.625C2.95078 17.5583 3.39661 17.4458 3.83828 17.2875C4.27995 17.1292 4.58412 16.9667 4.75078 16.8C4.95078 16.6 5.05911 16.3583 5.07578 16.075C5.09245 15.7916 5.00078 15.55 4.80078 15.35C4.60078 15.15 4.35911 15.0542 4.07578 15.0625C3.79245 15.0708 3.55078 15.175 3.35078 15.375Z" fill="#F0F0F0"/>
</svg>
