<svg width="36" height="36" viewBox="0 0 36 36" fill="none" xmlns="http://www.w3.org/2000/svg">
    <path d="M9.07461 27.5251C9.45794 27.5251 9.79544 27.3834 10.0871 27.1001C10.3788 26.8168 10.5246 26.4834 10.5246 26.1001C10.5246 25.7168 10.3788 25.3793 10.0871 25.0876C9.79544 24.7959 9.45794 24.6501 9.07461 24.6501C8.69128 24.6501 8.35794 24.7959 8.07461 25.0876C7.79128 25.3793 7.64961 25.7168 7.64961 26.1001C7.64961 26.4834 7.79128 26.8168 8.07461 27.1001C8.35794 27.3834 8.69128 27.5251 9.07461 27.5251ZM9.07461 19.4251C9.45794 19.4251 9.79544 19.2834 10.0871 19.0001C10.3788 18.7168 10.5246 18.3834 10.5246 18.0001C10.5246 17.6168 10.3788 17.2793 10.0871 16.9876C9.79544 16.6959 9.45794 16.5501 9.07461 16.5501C8.69128 16.5501 8.35794 16.6959 8.07461 16.9876C7.79128 17.2793 7.64961 17.6168 7.64961 18.0001C7.64961 18.3834 7.79128 18.7168 8.07461 19.0001C8.35794 19.2834 8.69128 19.4251 9.07461 19.4251ZM9.07461 11.3001C9.45794 11.3001 9.79544 11.1584 10.0871 10.8751C10.3788 10.5918 10.5246 10.2584 10.5246 9.8751C10.5246 9.49177 10.3788 9.15426 10.0871 8.8626C9.79544 8.57093 9.45794 8.4251 9.07461 8.4251C8.69128 8.4251 8.35794 8.57093 8.07461 8.8626C7.79128 9.15426 7.64961 9.49177 7.64961 9.8751C7.64961 10.2584 7.79128 10.5918 8.07461 10.8751C8.35794 11.1584 8.69128 11.3001 9.07461 11.3001ZM15.6246 27.5501H27.6746V24.6751H15.6246V27.5501ZM15.6246 19.4251H27.6746V16.5501H15.6246V19.4251ZM15.6246 11.3251H27.6746V8.4501H15.6246V11.3251ZM3.09961 35.7751C2.33394 35.7751 1.66344 35.4873 1.08811 34.9116C0.512443 34.3363 0.224609 33.6658 0.224609 32.9001V3.1001C0.224609 2.33443 0.512443 1.66393 1.08811 1.0886C1.66344 0.512932 2.33394 0.225098 3.09961 0.225098H32.8996C33.6653 0.225098 34.3358 0.512932 34.9111 1.0886C35.4868 1.66393 35.7746 2.33443 35.7746 3.1001V32.9001C35.7746 33.6658 35.4868 34.3363 34.9111 34.9116C34.3358 35.4873 33.6653 35.7751 32.8996 35.7751H3.09961ZM3.09961 32.9001H32.8996V3.1001H3.09961V32.9001Z" fill="#F0F0F0"/>
</svg>
