<svg width="40" height="40" viewBox="0 0 40 40" fill="none" xmlns="http://www.w3.org/2000/svg">
<path d="M18.725 29.875H21.6V18.025H18.725V29.875ZM19.9965 14.4C20.4488 14.4 20.8292 14.252 21.1375 13.956C21.4458 13.66 21.6 13.2932 21.6 12.8555C21.6 12.3702 21.4473 11.973 21.142 11.664C20.8363 11.3547 20.4577 11.2 20.006 11.2C19.5353 11.2 19.15 11.3528 18.85 11.6585C18.55 11.9642 18.4 12.3553 18.4 12.832C18.4 13.2807 18.553 13.6542 18.859 13.9525C19.165 14.2508 19.5442 14.4 19.9965 14.4ZM20.0165 39.75C17.2932 39.75 14.7327 39.229 12.335 38.187C9.93767 37.1447 7.845 35.728 6.057 33.937C4.269 32.1457 2.85417 30.0523 1.8125 27.657C0.770833 25.2613 0.25 22.7017 0.25 19.978C0.25 17.2517 0.771 14.6887 1.813 12.289C2.85533 9.889 4.272 7.79917 6.063 6.0195C7.85433 4.23983 9.94767 2.83333 12.343 1.8C14.7387 0.766667 17.2983 0.25 20.022 0.25C22.7483 0.25 25.3115 0.768834 27.7115 1.8065C30.1118 2.84417 32.2017 4.2525 33.981 6.0315C35.7603 7.8105 37.1667 9.90034 38.2 12.301C39.2333 14.702 39.75 17.2628 39.75 19.9835C39.75 22.7068 39.2332 25.2673 38.1995 27.665C37.1655 30.0623 35.7572 32.152 33.9745 33.934C32.1915 35.7157 30.0997 37.1305 27.699 38.1785C25.298 39.2262 22.7372 39.75 20.0165 39.75ZM20.0235 36.875C24.6912 36.875 28.6667 35.2255 31.95 31.9265C35.2333 28.6278 36.875 24.6445 36.875 19.9765C36.875 15.3088 35.237 11.3333 31.961 8.05C28.685 4.76667 24.6985 3.125 20.0015 3.125C15.3505 3.125 11.375 4.763 8.075 8.039C4.775 11.315 3.125 15.3015 3.125 19.9985C3.125 24.6495 4.7745 28.625 8.0735 31.925C11.3722 35.225 15.3555 36.875 20.0235 36.875Z" fill="#F0F0F0"/>
</svg>
