<svg width="40" height="40" viewBox="0 0 40 40" fill="none" xmlns="http://www.w3.org/2000/svg">
    <path d="M15.5504 39.75L14.5504 33.525C13.9004 33.3083 13.2129 32.9916 12.4879 32.575C11.7629 32.1583 11.1316 31.7333 10.5939 31.3L4.80039 33.95L0.275391 25.95L5.62539 22.05C5.55872 21.7506 5.51706 21.4175 5.50039 21.0505C5.48372 20.6835 5.47539 20.3333 5.47539 20C5.47539 19.7166 5.48372 19.3791 5.50039 18.9875C5.51706 18.5958 5.55872 18.2333 5.62539 17.9L0.275391 14L4.80039 6.02498L10.6504 8.69998C11.1504 8.28331 11.7546 7.87081 12.4629 7.46248C13.1712 7.05414 13.8671 6.74164 14.5504 6.52498L15.5504 0.224976H24.4754L25.4754 6.44998C26.1087 6.68331 26.7879 6.99998 27.5129 7.39998C28.2379 7.79998 28.8504 8.23331 29.3504 8.69998L35.2254 6.02498L39.7504 14L34.3254 17.852C34.3754 18.184 34.4129 18.5375 34.4379 18.9125C34.4629 19.2875 34.4754 19.65 34.4754 20C34.4754 20.35 34.4629 20.707 34.4379 21.071C34.4129 21.4353 34.3754 21.7796 34.3254 22.104L39.7254 25.95L35.2004 33.95L29.3504 31.275C28.8514 31.7036 28.2641 32.1233 27.5884 32.534C26.9131 32.9446 26.2087 33.275 25.4754 33.525L24.4754 39.75H15.5504ZM17.8179 36.875H22.1719L22.9004 31.25C23.9864 30.981 25.0044 30.5736 25.9544 30.028C26.9044 29.482 27.7781 28.806 28.5754 28L33.9004 30.325L35.8754 26.762L31.1504 23.3C31.2671 22.7333 31.3712 22.1798 31.4629 21.6395C31.5546 21.0991 31.6004 20.5506 31.6004 19.994C31.6004 19.4313 31.5671 18.8833 31.5004 18.35C31.4337 17.8166 31.3171 17.2666 31.1504 16.7L35.8754 13.225L33.9254 9.64998L28.5754 11.975C27.8254 11.1416 26.9712 10.4333 26.0129 9.84998C25.0546 9.26664 24.0171 8.89164 22.9004 8.72498L22.2004 3.09998H17.8004L17.1254 8.72697C15.9587 8.97564 14.9087 9.36664 13.9754 9.89998C13.0421 10.4333 12.1754 11.125 11.3754 11.975L6.10039 9.64998L4.10039 13.225L8.80039 16.65C8.66706 17.2333 8.55872 17.797 8.47539 18.341C8.39206 18.885 8.35039 19.4291 8.35039 19.9735C8.35039 20.5411 8.38789 21.0958 8.46289 21.6375C8.53789 22.1791 8.64206 22.7416 8.77539 23.325L4.10039 26.75L6.09339 30.325L11.3754 28.025C12.1921 28.8416 13.0796 29.5208 14.0379 30.0625C14.9962 30.6041 16.0254 31.0083 17.1254 31.275L17.8179 36.875ZM19.9619 26.375C21.7222 26.375 23.2229 25.7536 24.4639 24.511C25.7049 23.2686 26.3254 21.7645 26.3254 19.9985C26.3254 18.2328 25.7042 16.7291 24.4619 15.4875C23.2196 14.2458 21.7157 13.625 19.9504 13.625C18.1671 13.625 16.6587 14.2463 15.4254 15.489C14.1921 16.7313 13.5754 18.2355 13.5754 20.0015C13.5754 21.7671 14.1921 23.2708 15.4254 24.5125C16.6587 25.7541 18.1709 26.375 19.9619 26.375Z" fill="#F0F0F0"/>
</svg>
