<svg width="38" height="38" viewBox="0 0 38 38" fill="none" xmlns="http://www.w3.org/2000/svg">
    <path d="M15.5047 14.925C16.4511 14.925 17.2617 14.5899 17.9367 13.9196C18.6117 13.2492 18.9492 12.4409 18.9492 11.4946C18.9492 10.5482 18.6099 9.73755 17.9312 9.06255C17.2526 8.38755 16.4401 8.05005 15.4937 8.05005C14.5474 8.05005 13.7409 8.38938 13.0742 9.06805C12.4076 9.74672 12.0742 10.5592 12.0742 11.5055C12.0742 12.4519 12.4094 13.2584 13.0797 13.925C13.7501 14.5917 14.5584 14.925 15.5047 14.925ZM15.5242 22.9251C16.7909 22.9251 18.0152 22.6729 19.1972 22.1686C20.3792 21.6646 21.4216 20.9252 22.3242 19.9506C21.2742 19.3169 20.1701 18.8417 19.0117 18.5251C17.8534 18.2084 16.6784 18.0501 15.4867 18.0501C14.3117 18.0501 13.1451 18.2084 11.9867 18.5251C10.8284 18.8417 9.73255 19.3167 8.69922 19.9501C9.61589 20.9001 10.6659 21.6334 11.8492 22.1501C13.0326 22.6667 14.2576 22.9251 15.5242 22.9251ZM35.8992 37.9001L25.3492 27.3501C24.0159 28.4167 22.4909 29.2792 20.7742 29.9376C19.0576 30.5959 17.3017 30.9251 15.5067 30.9251C11.2184 30.9251 7.57422 29.4251 4.57422 26.4251C1.57422 23.4251 0.0742187 19.7834 0.0742188 15.5001C0.0742188 11.2167 1.57422 7.57088 4.57422 4.56255C7.57422 1.55422 11.2159 0.0500488 15.4992 0.0500488C19.7826 0.0500488 23.4284 1.55422 26.4367 4.56255C29.4451 7.57088 30.9492 11.2192 30.9492 15.5076C30.9492 17.3026 30.6159 19.0584 29.9492 20.7751C29.2826 22.4917 28.4242 24.0167 27.3742 25.3501L37.8992 35.9001L35.8992 37.9001ZM15.5227 28.0501C18.9904 28.0501 21.9492 26.8256 24.3992 24.3766C26.8492 21.9276 28.0742 18.9609 28.0742 15.4766C28.0742 12.0089 26.8511 9.05005 24.4047 6.60005C21.9587 4.15005 18.9907 2.92505 15.5007 2.92505C12.0331 2.92505 9.07422 4.14822 6.62422 6.59455C4.17422 9.04055 2.94922 12.0085 2.94922 15.4985C2.94922 18.9662 4.17372 21.9251 6.62272 24.3751C9.07172 26.8251 12.0384 28.0501 15.5227 28.0501Z" fill="#F0F0F0"/>
</svg>
