<svg width="15" height="20" viewBox="0 0 15 20" fill="none" xmlns="http://www.w3.org/2000/svg">
    <path d="M10 20C8.63333 20 7.34167 19.7375 6.125 19.2125C4.90833 18.6875 3.84583 17.9708 2.9375 17.0625C2.02917 16.1542 1.3125 15.0917 0.7875 13.875C0.2625 12.6583 0 11.3667 0 10C0 8.61667 0.2625 7.32083 0.7875 6.1125C1.3125 4.90417 2.02917 3.84583 2.9375 2.9375C3.84583 2.02917 4.90833 1.3125 6.125 0.7875C7.34167 0.2625 8.63333 0 10 0C10.9 0 11.775 0.116667 12.625 0.35C13.475 0.583333 14.2667 0.916667 15 1.35C13.4833 2.23333 12.2708 3.42917 11.3625 4.9375C10.4542 6.44583 10 8.13333 10 10C10 11.8667 10.4542 13.5542 11.3625 15.0625C12.2708 16.5708 13.4833 17.7667 15 18.65C14.2667 19.0833 13.475 19.4167 12.625 19.65C11.775 19.8833 10.9 20 10 20ZM10 18H10.525C10.6917 18 10.85 17.9833 11 17.95C10.05 16.85 9.3125 15.6208 8.7875 14.2625C8.2625 12.9042 8 11.4833 8 10C8 8.51667 8.2625 7.09583 8.7875 5.7375C9.3125 4.37917 10.05 3.15 11 2.05C10.85 2.01667 10.6917 2 10.525 2H10C7.78333 2 5.89583 2.77917 4.3375 4.3375C2.77917 5.89583 2 7.78333 2 10C2 12.2167 2.77917 14.1042 4.3375 15.6625C5.89583 17.2208 7.78333 18 10 18Z" fill="#F0F0F0"/>
</svg>
